<svg width="112" height="112" viewBox="0 0 112 112" fill="none" xmlns="http://www.w3.org/2000/svg">
<path d="M52.8465 3.35608C54.1527 0.76867 57.8473 0.76867 59.1535 3.35608C60.5929 6.20734 64.4509 6.71526 66.5792 4.3337C68.5106 2.17252 72.0792 3.12874 72.6713 5.96605C73.3237 9.0927 76.9188 10.5819 79.591 8.83229C82.0159 7.24463 85.2154 9.0919 85.0529 11.9858C84.8739 15.1747 87.9611 17.5436 90.995 16.5453C93.7482 15.6393 96.3607 18.2518 95.4547 21.005C94.4564 24.0389 96.8253 27.1261 100.014 26.9471C102.908 26.7846 104.755 29.9841 103.168 32.409C101.418 35.0812 102.907 38.6763 106.034 39.3287C108.871 39.9208 109.827 43.4894 107.666 45.4208C105.285 47.5491 105.793 51.4071 108.644 52.8465C111.231 54.1527 111.231 57.8473 108.644 59.1535C105.793 60.5929 105.285 64.4509 107.666 66.5792C109.827 68.5106 108.871 72.0792 106.034 72.6713C102.907 73.3237 101.418 76.9188 103.168 79.591C104.755 82.0159 102.908 85.2154 100.014 85.0529C96.8253 84.8739 94.4564 87.9611 95.4547 90.995C96.3607 93.7482 93.7482 96.3607 90.995 95.4547C87.9611 94.4564 84.8739 96.8253 85.0529 100.014C85.2154 102.908 82.0159 104.755 79.591 103.168C76.9188 101.418 73.3237 102.907 72.6713 106.034C72.0792 108.871 68.5106 109.827 66.5792 107.666C64.4509 105.285 60.5929 105.793 59.1535 108.644C57.8473 111.231 54.1527 111.231 52.8465 108.644C51.4071 105.793 47.5491 105.285 45.4208 107.666C43.4894 109.827 39.9208 108.871 39.3287 106.034C38.6763 102.907 35.0812 101.418 32.409 103.168C29.9841 104.755 26.7846 102.908 26.9471 100.014C27.1261 96.8253 24.0389 94.4564 21.005 95.4547C18.2518 96.3607 15.6393 93.7482 16.5453 90.995C17.5436 87.9611 15.1747 84.8739 11.9858 85.0529C9.0919 85.2154 7.24463 82.0159 8.83229 79.591C10.5819 76.9188 9.0927 73.3237 5.96605 72.6713C3.12874 72.0792 2.17252 68.5106 4.3337 66.5792C6.71526 64.4509 6.20734 60.5929 3.35608 59.1535C0.76867 57.8473 0.76867 54.1527 3.35608 52.8465C6.20734 51.4071 6.71526 47.5491 4.3337 45.4208C2.17252 43.4894 3.12874 39.9208 5.96605 39.3287C9.0927 38.6763 10.5819 35.0812 8.83229 32.409C7.24463 29.9841 9.0919 26.7846 11.9858 26.9471C15.1747 27.1261 17.5436 24.0389 16.5453 21.005C15.6393 18.2518 18.2518 15.6393 21.005 16.5453C24.0389 17.5436 27.1261 15.1747 26.9471 11.9858C26.7846 9.0919 29.9841 7.24463 32.409 8.83229C35.0812 10.5819 38.6763 9.0927 39.3287 5.96605C39.9208 3.12874 43.4894 2.17252 45.4208 4.3337C47.5491 6.71526 51.4071 6.20734 52.8465 3.35608Z" fill="#141414" stroke="url(#paint0_linear_190_1122)"/>
<defs>
<linearGradient id="paint0_linear_190_1122" x1="-4" y1="-4" x2="116" y2="116" gradientUnits="userSpaceOnUse">
<stop stop-color="#363636"/>
<stop offset="1" stop-color="#363636" stop-opacity="0"/>
</linearGradient>
</defs>
</svg>
