<svg width="32" height="32" viewBox="0 0 32 32" fill="none" xmlns="http://www.w3.org/2000/svg">
<circle cx="16" cy="16" r="16" fill="#7D7D7D"/>
<path d="M19.75 7.875H12.25C11.0901 7.87624 9.97798 8.33758 9.15778 9.15778C8.33758 9.97798 7.87624 11.0901 7.875 12.25V19.75C7.87624 20.9099 8.33758 22.022 9.15778 22.8422C9.97798 23.6624 11.0901 24.1238 12.25 24.125H19.75C20.9099 24.1238 22.022 23.6624 22.8422 22.8422C23.6624 22.022 24.1238 20.9099 24.125 19.75V12.25C24.1238 11.0901 23.6624 9.97798 22.8422 9.15778C22.022 8.33758 20.9099 7.87624 19.75 7.875ZM16 19.75C15.2583 19.75 14.5333 19.5301 13.9166 19.118C13.2999 18.706 12.8193 18.1203 12.5355 17.4351C12.2516 16.7498 12.1774 15.9958 12.3221 15.2684C12.4668 14.541 12.8239 13.8728 13.3483 13.3483C13.8728 12.8239 14.541 12.4668 15.2684 12.3221C15.9958 12.1774 16.7498 12.2516 17.4351 12.5355C18.1203 12.8193 18.706 13.2999 19.118 13.9166C19.5301 14.5333 19.75 15.2583 19.75 16C19.749 16.9942 19.3535 17.9475 18.6505 18.6505C17.9475 19.3535 16.9942 19.749 16 19.75ZM20.6875 12.25C20.5021 12.25 20.3208 12.195 20.1667 12.092C20.0125 11.989 19.8923 11.8426 19.8214 11.6713C19.7504 11.5 19.7318 11.3115 19.768 11.1296C19.8042 10.9477 19.8935 10.7807 20.0246 10.6496C20.1557 10.5185 20.3227 10.4292 20.5046 10.393C20.6865 10.3568 20.875 10.3754 21.0463 10.4464C21.2176 10.5173 21.364 10.6375 21.467 10.7917C21.57 10.9458 21.625 11.1271 21.625 11.3125C21.625 11.5611 21.5262 11.7996 21.3504 11.9754C21.1746 12.1512 20.9361 12.25 20.6875 12.25ZM18.5 16C18.5 16.4945 18.3534 16.9778 18.0787 17.3889C17.804 17.8 17.4135 18.1205 16.9567 18.3097C16.4999 18.4989 15.9972 18.5484 15.5123 18.452C15.0273 18.3555 14.5819 18.1174 14.2322 17.7678C13.8826 17.4181 13.6445 16.9727 13.548 16.4877C13.4516 16.0028 13.5011 15.5001 13.6903 15.0433C13.8795 14.5865 14.2 14.196 14.6111 13.9213C15.0222 13.6466 15.5055 13.5 16 13.5C16.663 13.5 17.2989 13.7634 17.7678 14.2322C18.2366 14.7011 18.5 15.337 18.5 16Z" fill="#141414"/>
</svg>
