<svg width="220" height="220" viewBox="0 0 220 220" fill="none" xmlns="http://www.w3.org/2000/svg">
<circle cx="110" cy="110" r="30" fill="url(#paint0_linear_342_36)"/>
<path d="M220 110C220 170.751 170.751 220 110 220C49.2487 220 0 170.751 0 110C0 49.2487 49.2487 0 110 0C170.751 0 220 49.2487 220 110ZM40.241 110C40.241 148.527 71.4732 179.759 110 179.759C148.527 179.759 179.759 148.527 179.759 110C179.759 71.4732 148.527 40.241 110 40.241C71.4732 40.241 40.241 71.4732 40.241 110Z" fill="url(#paint1_linear_342_36)"/>
<defs>
<linearGradient id="paint0_linear_342_36" x1="110" y1="80" x2="110" y2="140" gradientUnits="userSpaceOnUse">
<stop stop-color="#2B2B2B"/>
<stop offset="1" stop-color="#2B2B2B" stop-opacity="0"/>
</linearGradient>
<linearGradient id="paint1_linear_342_36" x1="110" y1="0" x2="110" y2="220" gradientUnits="userSpaceOnUse">
<stop stop-color="#2B2B2B"/>
<stop offset="1" stop-color="#2B2B2B" stop-opacity="0"/>
</linearGradient>
</defs>
</svg>
