<?xml version="1.0" encoding="utf-8"?>
<!-- Generator: Adobe Illustrator 23.1.0, SVG Export Plug-In . SVG Version: 6.00 Build 0)  -->
<svg version="1.1" id="Layer_1" xmlns="http://www.w3.org/2000/svg" xmlns:xlink="http://www.w3.org/1999/xlink" x="0px" y="0px"
	 viewBox="0 0 777 280" style="enable-background:new 0 0 777 280;" xml:space="preserve">
<style type="text/css">
	.st0{fill:none;stroke:#FFFFFF;stroke-width:15;stroke-miterlimit:10;}
	.st1{fill:#FFFFFF;}
</style>
<polyline class="st0" points="11.5,9.5 11.5,215.5 132.5,67.5 "/>
<path class="st0" d="M51.5,167V13.5c0,0,110-18,148,96c0,0,23,81-50,135l-81.38-98.25"/>
<path class="st0" d="M11.5,270.5c0,0,106,7,121-14"/>
<g>
	<g>
		<path class="st1" d="M295.01,93.64h40.25c29.56,0,48.89,19.47,48.89,49.48c0,29.6-18.75,52.03-49.81,52.03h-39.33V93.64z
			 M316.96,177.42h16.46c19.46,0,28.06-14.47,28.06-34.24c0-16.58-8.05-31.8-27.93-31.8h-16.59V177.42z"/>
		<path class="st1" d="M422.1,161.55c0.02,9.53,4.79,18.85,15.3,18.85c8.78,0,11.29-3.53,13.29-8.14h21.12
			c-2.7,9.33-11.03,24.65-34.97,24.65c-25.1,0-35.99-18.77-35.99-38.76c0-23.91,12.27-40.98,36.75-40.98
			c26.17,0,35.07,18.93,35.07,37.96c0,2.58,0,4.25-0.28,6.43H422.1z M451.54,148.6c-0.15-8.87-3.69-16.34-13.97-16.34
			c-10.11,0-14.18,6.97-15.02,16.34H451.54z"/>
		<path class="st1" d="M507.15,172.24c1.6,6.07,6.55,9.48,14.43,9.48c7.79,0,10.63-2.8,10.63-7.41c0-4.89-3.27-6.81-14.19-9.49
			c-24.83-6.12-28.89-13.81-28.89-24.56c0-11.2,7.92-23.08,30.9-23.08c23.12,0,30.94,12.62,31.6,22.95h-20.06
			c-0.68-2.81-2.55-8.14-12.48-8.14c-6.98,0-9.23,3.09-9.23,6.52c0,3.79,2.37,5.62,14.74,8.51c25.43,5.91,29.02,14.63,29.02,25.8
			c0,12.62-9.6,24.11-32.83,24.11c-23.13,0-32.69-11.17-34.36-24.68H507.15z"/>
		<path class="st1" d="M572.13,87.67h21.1v18.82h-21.1V87.67z M572.13,118.94h21.1v76.21h-21.1V118.94z"/>
		<path class="st1" d="M686.07,185.86c0,24.46-9.03,39.94-37.89,39.94c-27.82,0-33.31-15.54-34.04-24.14h21.51
			c1.48,5.23,5.34,8.8,13.48,8.8c13.7,0,16.27-8.35,16.27-23.29v-3.64c-3.98,6.59-10.28,10.71-21.48,10.71
			c-20.08,0-31.51-16.45-31.51-36.94c0-23.83,14.26-40.13,33.32-40.13c13.07,0,18.51,6.16,19.67,9.72c0.15-2.07,0.68-6.7,0.83-7.95
			h20.01c-0.13,6.8-0.17,14.54-0.17,21.87V185.86z M634.08,156.36c0,13.11,6.55,20.85,15.89,20.85c12.7,0,16.09-8.72,16.09-21.51
			c0-12.82-2.26-21.63-15.65-21.63C641.26,134.07,634.08,141.13,634.08,156.36z"/>
		<path class="st1" d="M709.48,138.14c0-6.48,0-13.57-0.15-19.2h20.44c0.42,1.97,0.7,7.26,0.81,9.71
			c2.59-4.79,8.76-11.48,22.11-11.48c15.31,0,25.25,10.34,25.25,29.49v48.48h-21.1v-46.14c0-8.57-2.86-14.77-12.17-14.77
			c-8.97,0-14.1,4.98-14.1,18.44v42.47h-21.1V138.14z"/>
	</g>
</g>
</svg>
